<?xml version="1.0" encoding="utf-8"?>
<svg viewBox="0 0 500 500" xmlns="http://www.w3.org/2000/svg">
  <rect x="48.143" y="52.418" width="97.711" height="35.702" style="stroke: rgb(0, 0, 0); fill: rgb(234, 255, 0);"/>
  <rect x="48.143" y="134.157" width="403.057" height="22.549" style="stroke: rgb(0, 0, 0); paint-order: stroke; fill-rule: nonzero; fill: rgb(228, 222, 35); stroke-width: 0px;"/>
  <rect x="48.491" y="331.083" width="403.057" height="22.549" style="stroke: rgb(0, 0, 0); paint-order: stroke; fill-rule: nonzero; fill: rgb(228, 222, 35); stroke-width: 0px;"/>
  <rect x="34.695" y="307.386" width="57.659" height="22.549" style="stroke: rgb(0, 0, 0); paint-order: stroke; fill-rule: nonzero; fill: rgb(228, 222, 35); stroke-width: 0px;" transform="matrix(0, 1, -1, 0, 384.447174, 257.020508)"/>
  <rect x="37.72" y="307.386" width="62.686" height="22.549" style="stroke: rgb(0, 0, 0); paint-order: stroke; fill-rule: nonzero; fill: rgb(228, 222, 35); stroke-width: 0px;" transform="matrix(0, 1, -1, 0, 751.073547, 252.469818)"/>
  <rect x="30.374" y="307.386" width="50.479" height="22.549" style="stroke: rgb(0, 0, 0); paint-order: stroke; fill-rule: nonzero; fill: rgb(228, 222, 35); stroke-width: 0px;" transform="matrix(0, 1, -1, 0, 750.355469, 118.353012)"/>
  <rect x="30.374" y="307.386" width="50.479" height="22.549" style="stroke: rgb(0, 0, 0); paint-order: stroke; fill-rule: nonzero; fill: rgb(228, 222, 35); stroke-width: 0px;" transform="matrix(0, 1, -1, 0, 387.005432, 114.762596)"/>
  <rect x="102.626" y="204.705" width="295.488" height="74.238" style="stroke: rgb(0, 0, 0); paint-order: stroke; fill-rule: nonzero; fill: rgb(228, 222, 35); stroke-width: 0px;"/>
  <g transform="matrix(0.079116, 0, 0, -0.081289, 8.736105, 476.576416)" fill="#e1de2d" stroke="none" style="">
    <path d="M 0 2830 L 0 0 L 3055 0 L 6110 0 L 6110 2830 L 6110 5660 L 3055 5660 L 0 5660 L 0 2830 Z M 3695 4904 C 4031 4565 4305 4282 4305 4276 C 4305 4269 4269 4265 4192 4265 L 4080 4265 L 3563 4783 C 3278 5067 3042 5299 3038 5298 C 3034 5296 2797 5062 2512 4777 L 1995 4260 L 1895 4260 C 1840 4260 1788 4265 1780 4270 C 1768 4278 1792 4307 1903 4417 C 1978 4493 2255 4772 2518 5037 L 2995 5519 L 3042.226 5542.835 L 3085 5520 L 3695 4904 Z M 5240 4137 C 5313 4112 5372 4059 5403 3990 C 5422 3950 5425 3922 5428 3722 C 5430 3599 5429 3488 5426 3477 C 5421 3457 5413 3455 5353 3452 C 5316 3451 5280 3453 5273 3457 C 5265 3463 5260 3532 5258 3690 C 5255 3930 5251 3947 5203 3969 C 5169 3985 911 3984 877 3969 C 835 3950 830 3923 830 3691 C 830 3528 827 3470 818 3463 C 808 3455 732 3453 668 3459 C 656 3460 659 3930 670 3971 C 689 4038 758 4108 835 4136 C 881 4153 5191 4154 5240 4137 Z M 1570 3847 C 1570 3840 1356 3621 1094 3360 C 833 3099 614 2877 609 2867 C 600 2851 668 2779 1089 2358 C 1359 2088 1580 1864 1580 1859 C 1580 1854 1528 1850 1465 1850 L 1351 1850 L 913 2289 C 672 2530 453 2751 426 2779 C 344 2868 317 2832 867 3382 L 1344 3859 L 1450 3862 C 1564 3865 1570 3865 1570 3847 Z M 5218 3377 C 5729 2865 5720 2876 5688 2817 C 5682 2805 5464 2582 5204 2323 L 4731 1850 L 4621 1850 C 4561 1850 4509 1854 4506 1859 C 4503 1863 4719 2085 4985 2351 C 5302 2668 5470 2842 5470 2855 C 5470 2868 5304 3041 4990 3355 C 4726 3619 4510 3841 4510 3847 C 4510 3857 4539 3860 4623 3860 L 4735 3860 L 5218 3377 Z M 1444 3228 C 1452 3177 1449 2485 1440 2470 C 1432 2457 1330 2452 1310 2465 C 1299 2472 1295 3242 1307 3253 C 1310 3257 1341 3260 1376 3260 L 1438 3260 L 1444 3228 Z M 2123 3254 C 2126 3251 2041 3162 1934 3058 C 1827 2953 1740 2863 1740 2857 C 1740 2852 1826 2764 1930 2662 C 2035 2560 2119 2472 2117 2466 C 2115 2460 2078 2454 2030 2453 L 1946 2451 L 1775 2620 L 1603 2790 L 1556 2790 L 1509 2790 L 1512 2858 L 1515 2925 L 1567 2930 L 1620 2936 L 1781 3098 L 1942 3260 L 2029 3260 C 2077 3260 2119 3257 2123 3254 Z M 2958 3195 C 2960 3149 2959.187 3124.487 2946.187 3114.487 C 2934.187 3106.487 2853 3111 2657 3110 C 2455 3110 2384 3106 2378 3097 C 2373 3090 2371 2983 2372 2859 C 2374 2685 2378 2629 2389 2617 C 2401 2602 2433 2600 2669 2600 C 2815 2600 2941 2596 2948 2591 C 2957 2586 2960 2565 2958 2525 C 2955 2469 2953 2466 2925 2458 C 2878 2445 2401 2455 2360 2470 C 2314 2487 2275 2524 2250 2575 C 2231 2613 2230 2637 2230 2914 L 2230 3211 L 2255 3236 L 2279 3260 L 2617 3258 L 2955 3255 L 2958 3195 Z M 3799 3244 C 3873 3215 3910 3143 3910 3030 C 3910 2875 3844 2771 3721 2735 C 3688 2724 3660 2711 3660 2705 C 3660 2699 3708 2654 3766 2604 C 3889 2500 3910 2480 3910 2466 C 3910 2456 3840 2453 3739 2459 C 3723 2460 3681 2488 3624 2538 C 3405 2727 3422 2715 3366 2720 L 3315 2725 L 3315 2790 L 3315 2855 L 3495 2860 C 3742 2867 3760 2879 3760 3030 L 3760 3110 L 3505 3110 L 3250 3110 L 3250 2790 C 3250 2428 3275.681 2455.128 3185.681 2458.128 C 3158.681 2459.128 3114 2457.615 3110 2464.615 C 3105 2471.615 3102 2646 3103 2844 C 3105 3222 3096.066 3242 3139.066 3254 C 3147.066 3256 3299 3258 3462 3259 C 3712 3260 3766 3257 3799 3244 Z M 4768 3247 C 4781 3232 4781 3152 4769 3128 C 4761 3113 4740 3110 4607 3108 L 4455 3105 L 4452 2788 C 4450 2493 4448 2470 4431 2461 C 4408 2448 4329 2456 4318 2472 C 4314 2479 4310 2623 4310 2792 C 4310 2961 4307 3101 4302 3104 C 4298 3106 4232 3109 4155 3111 C 4078 3112 4009 3118 4003 3123 C 3989 3133 3985 3241 3997 3253 C 4000 3257 4173 3260 4380 3260 C 4675 3260 4760 3257 4768 3247 Z M 2888 2858 L 2891 2790 L 2667 2790 C 2471 2790 2441 2792 2436 2806 C 2426 2833 2429 2905 2442 2918 C 2451 2927 2511 2930 2670 2928 L 2885 2925 L 2888 2858 Z M 830 2018 C 835 1787 836 1780 858 1758 L 881 1735 L 3040 1735 L 5200 1735 L 5227 1763 L 5255 1790 L 5260 2023 L 5265 2255 L 5345 2255 L 5425 2255 L 5425 2015 L 5425 1774 L 5393 1710 C 5368 1659 5350 1637 5309 1610 L 5257 1575 L 3061 1572 C 1483 1570 854 1572 827 1580 C 775 1595 712 1655 684 1715 C 661 1763 660 1775 660 2006 C 660 2138 663 2250 667 2254 C 671 2258 708 2259 750 2258 L 825 2255 L 830 2018 Z M 2515 930 C 2796 649 3032 420 3040 420 C 3048 420 3287 651 3570 934 L 4085 1447 L 4193 1445 C 4252 1444 4303 1440 4307 1436 C 4316 1427 3114 224 3077 204 C 3055 192 3042 191 3017 199 C 2974 214 1760 1427 1777 1438 C 1784 1442 1838 1444 1897 1443 L 2005 1440 L 2515 930 Z" style="fill: rgb(18, 15, 66);"/>
  </g>
</svg>