<?xml version="1.0" standalone="no"?>
<!DOCTYPE svg PUBLIC "-//W3C//DTD SVG 20010904//EN"
 "http://www.w3.org/TR/2001/REC-SVG-20010904/DTD/svg10.dtd">
<svg version="1.0" xmlns="http://www.w3.org/2000/svg"
 width="611.000000pt" height="566.000000pt" viewBox="0 0 611.000000 566.000000"
 preserveAspectRatio="xMidYMid meet">

<g transform="translate(0.000000,566.000000) scale(0.100000,-0.100000)"
fill="#e1de2d" stroke="none">
<path d="M0 2830 l0 -2830 3055 0 3055 0 0 2830 0 2830 -3055 0 -3055 0 0
-2830z m3695 2074 c336 -339 610 -622 610 -628 0 -7 -36 -11 -113 -11 l-112 0
-517 518 c-285 284 -521 516 -525 515 -4 -2 -241 -236 -526 -521 l-517 -517
-100 0 c-55 0 -107 5 -115 10 -12 8 12 37 123 147 75 76 352 355 615 620 l477
482 45 0 45 1 610 -616z m1545 -767 c73 -25 132 -78 163 -147 19 -40 22 -68
25 -268 2 -123 1 -234 -2 -245 -5 -20 -13 -22 -73 -25 -37 -1 -73 1 -80 5 -8
6 -13 75 -15 233 -3 240 -7 257 -55 279 -34 16 -4292 15 -4326 0 -42 -19 -47
-46 -47 -278 0 -163 -3 -221 -12 -228 -10 -8 -86 -10 -150 -4 -12 1 -9 471 2
512 19 67 88 137 165 165 46 17 4356 18 4405 1z m-3670 -290 c0 -7 -214 -226
-476 -487 -261 -261 -480 -483 -485 -493 -9 -16 59 -88 480 -509 270 -270 491
-494 491 -499 0 -5 -52 -9 -115 -9 l-114 0 -438 439 c-241 241 -460 462 -487
490 -82 89 -109 53 441 603 l477 477 106 3 c114 3 120 3 120 -15z m3648 -470
c511 -512 502 -501 470 -560 -6 -12 -224 -235 -484 -494 l-473 -473 -110 0
c-60 0 -112 4 -115 9 -3 4 213 226 479 492 317 317 485 491 485 504 0 13 -166
186 -480 500 -264 264 -480 486 -480 492 0 10 29 13 113 13 l112 0 483 -483z
m-3774 -149 c8 -51 5 -743 -4 -758 -8 -13 -110 -18 -130 -5 -11 7 -15 777 -3
788 3 4 34 7 69 7 l62 0 6 -32z m679 26 c3 -3 -82 -92 -189 -196 -107 -105
-194 -195 -194 -201 0 -5 86 -93 190 -195 105 -102 189 -190 187 -196 -2 -6
-39 -12 -87 -13 l-84 -2 -171 169 -172 170 -47 0 -47 0 3 68 3 67 52 5 53 6
161 162 161 162 87 0 c48 0 90 -3 94 -6z m835 -59 c2 -46 -1 -62 -14 -72 -12
-8 -91 -12 -287 -13 -202 0 -273 -4 -279 -13 -5 -7 -7 -114 -6 -238 2 -174 6
-230 17 -242 12 -15 44 -17 280 -17 146 0 272 -4 279 -9 9 -5 12 -26 10 -66
-3 -56 -5 -59 -33 -67 -47 -13 -524 -3 -565 12 -46 17 -85 54 -110 105 -19 38
-20 62 -20 339 l0 297 25 25 24 24 338 -2 338 -3 3 -60z m841 49 c74 -29 111
-101 111 -214 0 -155 -66 -259 -189 -295 -33 -11 -61 -24 -61 -30 0 -6 48 -51
106 -101 123 -104 144 -124 144 -138 0 -10 -70 -13 -171 -7 -16 1 -58 29 -115
79 -219 189 -202 177 -258 182 l-51 5 0 65 0 65 180 5 c247 7 265 19 265 170
l0 80 -255 0 -255 0 0 -320 c0 -362 6 -337 -84 -334 -27 1 -52 8 -56 15 -5 7
-8 175 -7 373 2 378 4 398 47 410 8 2 149 4 312 5 250 1 304 -2 337 -15z m969
3 c13 -15 13 -95 1 -119 -8 -15 -29 -18 -162 -20 l-152 -3 -3 -317 c-2 -295
-4 -318 -21 -327 -23 -13 -102 -5 -113 11 -4 7 -8 151 -8 320 0 169 -3 309 -8
312 -4 2 -70 5 -147 7 -77 1 -146 7 -152 12 -14 10 -18 118 -6 130 3 4 176 7
383 7 295 0 380 -3 388 -13z m-1880 -389 l3 -68 -224 0 c-196 0 -226 2 -231
16 -10 27 -7 99 6 112 9 9 69 12 228 10 l215 -3 3 -67z m-2058 -840 c5 -231 6
-238 28 -260 l23 -23 2159 0 2160 0 27 28 28 27 5 233 5 232 80 0 80 0 0 -240
0 -241 -32 -64 c-25 -51 -43 -73 -84 -100 l-52 -35 -2196 -3 c-1578 -2 -2207
0 -2234 8 -52 15 -115 75 -143 135 -23 48 -24 60 -24 291 0 132 3 244 7 248 4
4 41 5 83 4 l75 -3 5 -237z m1685 -1088 c281 -281 517 -510 525 -510 8 0 247
231 530 514 l515 513 108 -2 c59 -1 110 -5 114 -9 9 -9 -1193 -1212 -1230
-1232 -22 -12 -35 -13 -60 -5 -43 15 -1257 1228 -1240 1239 7 4 61 6 120 5
l108 -3 510 -510z"/>
</g>
</svg>
